<?xml version="1.0" encoding="utf-8"?><!-- Generator: Adobe Illustrator 21.0.2, SVG Export Plug-In . SVG Version: 6.00 Build 0)  --><svg version="1.1" xmlns="http://www.w3.org/2000/svg" xmlns:xlink="http://www.w3.org/1999/xlink" x="0px" y="0px"	 viewBox="0 0 292 266" style="enable-background:new 0 0 292 266;" xml:space="preserve"><style type="text/css">	.st0{fill:#808080;}	.st1{display:none;}	.st2{display:inline;fill:#4D4D4D;}	.st3{display:inline;fill:#666666;}	.st4{fill:#FFFFFF;stroke:#000000;stroke-miterlimit:10;}	.st5{fill:none;stroke:#000000;stroke-miterlimit:10;}	.st6{fill:#B3B3B3;stroke:#B3B3B3;stroke-miterlimit:10;}	.st7{fill:#FFF0C0;stroke:#000000;stroke-miterlimit:10;}	.st8{fill:#FFDC7B;stroke:#000000;stroke-miterlimit:10;}	.st9{opacity:0.75;fill:#CCCCCC;stroke:#CCCCCC;stroke-miterlimit:10;}	.st10{opacity:0.5;fill:#BAC3DB;stroke:#000000;stroke-miterlimit:10;}	.st11{fill:#03CFFF;stroke:#000000;stroke-miterlimit:10;}	.st12{opacity:0.5;fill:#03CFFF;stroke:#000000;stroke-miterlimit:10;}</style><g id="Layer_5">	<ellipse class="st0" cx="146" cy="184.5" rx="144" ry="75.5"/></g><g id="Layer_1" class="st1">	<path class="st2" d="M284.6,273c-21.2,31.3-80.5,25.2-132.4-13.7c-1.6-1.2-3.2-2.5-4.8-3.7c-0.7-0.6-1.4-1.1-2.1-1.7		c-47.2-38.6-69-91.9-48.8-121.8c2.7-4,6.1-7.4,10-10.2c8.3-3,16.4-5.2,24.2-6.6c11.4-2,22.1-2.3,31.7-0.9c4.4,0.9,8.9,2.1,13.4,3.5		c0,0,0,0,0.1,0c6.4,2,12.9,4.5,19.4,7.6c11.3,5.3,22.6,12.1,33.7,20.3C280.9,184.6,305.8,241.6,284.6,273z"/>	<path class="st3" d="M145.3,252.8c-1,0.8-2,1.6-3,2.3c-1,0.7-1.9,1.4-2.9,2.1c-53.3,39-114.6,45.8-136.9,15.2		c-22.3-30.5,2.8-86.9,56-125.8c13.9-10.2,28.4-18.2,42.6-23.9c1.8-0.7,3.6-1.4,5.3-2c8.3-3,16.4-5.2,24.2-6.6		c11.4-2,22.1-2.3,31.7-0.9c4.8,0.7,9.3,1.9,13.4,3.5c0,0,0,0,0.1,0c6.2,2.4,11.6,5.9,16,10.4c1.3,1.3,2.5,2.8,3.6,4.3		C217,160.9,194.5,214.1,145.3,252.8z"/></g><g id="Layer_2">	<g>		<path class="st4" d="M209.1,75.4v91.9c0,0.2,0,0.4,0,0.6c-1.2,8.6-27.7,15.5-60.3,15.5s-59.1-6.9-60.3-15.5c0-0.2,0-0.4,0-0.6			V75.4c0,8.9,27,16.1,60.3,16.1S209.1,84.3,209.1,75.4z"/>		<path class="st4" d="M213.3,74.8v0.6c0,8.9-29.4,16.1-65.7,16.1s-65.7-7.2-65.7-16.1v-0.6H213.3z"/>		<path class="st4" d="M213.3,75.4c0,8.9-29.4,16.1-65.7,16.1s-65.7-7.2-65.7-16.1c0-0.2,0-0.4,0-0.6c1.3-8.6,30.2-15.5,65.6-15.5			s64.4,6.9,65.6,15.5C213.3,75,213.3,75.2,213.3,75.4z"/>		<path class="st5" d="M136.9,72.5c0,11.9-1.1,21.5-2.4,21.5"/>		<path class="st5" d="M170.3,66.5c0,13.9,1.6,25.1,3.6,25.1"/>		<path class="st5" d="M208.5,53.3c0,11.9,2.1,21.5,4.8,21.5"/>		<path class="st5" d="M93.9,61.7c0,10.6-3.7,19.1-8.4,19.1"/>		<path class="st6" d="M209.1,85.6v81.8c0,0.2,0,0.4,0,0.6c-1.2,8.6-27.6,15.5-60.1,15.5c-26.3,0-48.6-4.5-56.8-10.8			C153.4,171.4,209.1,133.9,209.1,85.6z"/>		<path class="st6" d="M209.1,85v81.8c0,0.2,0,0.4,0,0.6c-1.2,8.6-27.6,15.5-60.1,15.5c-26.3,0-48.6-4.5-56.8-10.8			C153.4,170.8,209.1,133.3,209.1,85z"/>		<path class="st5" d="M209.1,75.4v91.9c0,0.2,0,0.4,0,0.6c-1.2,8.6-27.7,15.5-60.3,15.5s-59.1-6.9-60.3-15.5c0-0.2,0-0.4,0-0.6			V75.4c0,8.9,27,16.1,60.3,16.1S209.1,84.3,209.1,75.4z"/>		<path class="st4" d="M213.1,75.1c-2.2,8.9-11.7,16.5-23.9,18.3c-5.5,0.8-10.8,0.3-15.4-1.3c-4.6,2.9-10,4.9-15.9,5.7			c-8.3,1.2-16.3-0.1-22.9-3.4c0,0,0,0,0,0c-3.8,1.7-8.1,3-12.6,3.6c-18.1,2.6-34.3-5.2-36.3-17.5c-16.8-2.8-29.4-11.9-31.2-24.2			C52.4,39.1,72.4,22,99.5,18.1c7.4-1.1,14.5-1,21,0C124.9,8.8,138.6,2,154.8,2c14,0,26.1,5.1,32,12.5c3.5-1.5,7.3-2.6,11.3-3.2			c20.9-3,39.9,9.2,42.5,27.1C242.8,54.7,230.9,70.1,213.1,75.1z"/>		<path class="st5" d="M120.7,27.7c-2.6-1.8-2.7-6.4,0-10.2"/>		<path class="st5" d="M191.2,38.4c5.1-4.6,3.1-15.3-4.6-23.8"/>		<path class="st5" d="M100.4,75.4c0,3-6.7,5.4-14.9,5.4"/>		<path class="st5" d="M130.3,83.8c-0.6,5.4,1.5,10,4.7,10.3"/>		<path class="st5" d="M178.5,77.9c2.6,5.2,0,11.8-5.8,14.6"/>		<path class="st5" d="M203.1,70.7c0,2.3,4.5,4.2,10.1,4.2"/>	</g></g><g id="Layer_3">	<g>		<path class="st7" d="M247.3,150.3l23.3-23.3c1.8-1.8,1.8-4.6,0-6.4l-1.3-1.3c-1.8-1.8-4.6-1.8-6.4,0l-23.3,23.3			c-1.8,1.8-1.8,4.6,0,6.4l1.3,1.3C242.7,152.1,245.6,152.1,247.3,150.3z"/>		<path class="st7" d="M260.6,148.6c0,6.5-3,12.2-7.7,15.9L165,247.8c3.4-3.6,5.5-8.5,5.5-14c0-11.3-9.1-20.4-20.4-20.4			c-5.2,0-10,2-13.6,5.2l0,0l88.9-84.2l0,0c3.7-3.9,8.9-6.2,14.7-6.2C251.4,128.2,260.6,137.4,260.6,148.6z"/>		<path class="st8" d="M170.5,233.9c0,5.4-2.1,10.3-5.5,14c-3.7,4-9,6.4-14.9,6.4c-11.3,0-20.4-9.1-20.4-20.4c0-6,2.6-11.5,6.8-15.2			c3.6-3.3,8.4-5.2,13.6-5.2C161.4,213.5,170.5,222.6,170.5,233.9z"/>		<path class="st8" d="M130.9,260.8l23.3-23.3c1.8-1.8,1.8-4.6,0-6.4l-1.3-1.3c-1.8-1.8-4.6-1.8-6.4,0l-23.3,23.3			c-1.8,1.8-1.8,4.6,0,6.4l1.3,1.3C126.3,262.5,129.1,262.5,130.9,260.8z"/>	</g></g><g id="Layer_4">	<g>		<path class="st9" d="M81.1,117.2c-1.8,0-3.5-0.1-5.2-0.3c0.8-1.8,1.6-3.4,2.4-4.9c2-3.5,4.3-6.3,6.8-8c0.9-0.7,1.9-1.2,2.8-1.5			c7,1.1,12,3.9,12,7.1c0,1.6-1.2,3-3.2,4.2c-2.3,1.4-5.7,2.4-9.7,3C85.2,117.1,83.2,117.2,81.1,117.2z"/>		<path class="st9" d="M111.5,175.2c-3.4,18.7-11.1,31.9-20.2,31.9c-8.2,0-15.3-10.7-19.1-26.5c-0.9-3.6-1.5-7.4-2-11.5			c-0.6-4.6-0.9-9.5-0.9-14.6c0-14.7,2.5-28,6.6-37.6c1.6,0.2,3.4,0.3,5.2,0.3c2.1,0,4.1-0.1,6-0.4c4-0.5,7.4-1.6,9.7-3v24.5			c0,1.2,0.2,2.4,0.7,3.5L111.5,175.2z"/>		<path class="st10" d="M87.9,102.5c-2.1-0.3-4.4-0.5-6.8-0.5c-10.4,0-18.8,3.4-18.8,7.6c0,1.6,1.2,3,3.2,4.2c2.3,1.4,5.7,2.4,9.7,3			c0.3,0,0.5,0.1,0.8,0.1c1.6,0.2,3.4,0.3,5.2,0.3c2.1,0,4.1-0.1,5.9-0.4c4-0.5,7.4-1.6,9.7-3c2-1.2,3.2-2.7,3.2-4.2			C99.9,106.4,94.9,103.6,87.9,102.5z M85,111.9c-1.3,0.1-2.6,0.2-4,0.2c-0.9,0-1.8,0-2.7-0.1c-0.4,0-0.8-0.1-1.1-0.1			c-5.3-0.5-9.2-2.1-9.2-4c0-0.1,0-0.2,0-0.3c0.5-2.1,5.9-3.8,12.5-3.8c0.1,0,0.3,0,0.4,0c0.2,0,0.4,0,0.6,0c1.2,0,2.4,0.1,3.5,0.2			c4.9,0.5,8.4,1.9,8.8,3.6c0,0.1,0,0.2,0,0.3C94,109.8,90.2,111.4,85,111.9z"/>		<path class="st10" d="M128,215.7c0,8.3-21,15-46.9,15s-46.9-6.7-46.9-15c0-0.7,0.1-1.3,0.4-1.9h-0.1l30.1-72			c0.5-1.1,0.7-2.2,0.7-3.5v-24.5c2.3,1.4,5.7,2.4,9.7,3c0.3,0,0.5,0.1,0.8,0.1c1.6,0.2,3.4,0.3,5.2,0.3c2.1,0,4.1-0.1,6-0.4			c4-0.5,7.4-1.6,9.7-3v24.5c0,1.2,0.2,2.4,0.7,3.5l14,33.4l16.1,38.5h-0.1C127.8,214.4,128,215.1,128,215.7z"/>		<path class="st10" d="M94,108c0,1.8-3.8,3.4-9,3.9c-1.3,0.1-2.6,0.2-4,0.2c-1.3,0-2.6-0.1-3.8-0.2c-5.3-0.5-9.2-2.1-9.2-4			c0-0.1,0-0.2,0-0.3c0.5-2.1,5.9-3.8,12.5-3.8c0.1,0,0.3,0,0.4,0c0.2,0,0.4,0,0.6,0c6.5,0.1,11.8,1.7,12.3,3.8			C93.9,107.8,94,107.9,94,108z"/>		<path class="st11" d="M82.1,182.2c-5.1,0.4-4-1.1-15.9-2.5c-3.6-0.5-7.2-0.7-10.8-3.2c-0.9-0.6-3.5-2.3-3.2-3.8			c0.1-0.4,0.4-1.3,5.7-2.5c3.1-0.7,4.8-1.2,7.6-1.3c5.4-0.2,5.8,1.1,11.5,1.3c5.5,0.2,5.7-0.9,11.5-0.6c5,0.3,4.2,1.1,8.9,1.3			c3.9,0.1,6.9-0.3,10.8,1.3c2.2,0.9,2.5,1.6,2.5,1.9c0.3,1.8-3.7,4.1-7,5.1c-3.6,1.1-5.2,0.4-9.6,0.6			C87.7,180,87.8,181.8,82.1,182.2z"/>		<circle class="st4" cx="75.1" cy="198.2" r="4.5"/>		<circle class="st4" cx="92.6" cy="190.2" r="1.6"/>		<circle class="st4" cx="90.4" cy="205.2" r="2.5"/>		<circle class="st4" cx="106.6" cy="203.6" r="4.8"/>		<circle class="st4" cx="62.6" cy="185.7" r="1"/>		<circle class="st4" cx="62.3" cy="201.4" r="1.3"/>		<circle class="st4" cx="73.5" cy="218.9" r="1.6"/>		<circle class="st4" cx="49.9" cy="201.7" r="1.6"/>		<circle class="st4" cx="51.8" cy="215.7" r="3.5"/>		<circle class="st4" cx="95.8" cy="219.5" r="1.6"/>		<circle class="st4" cx="105.7" cy="185.4" r="3.2"/>		<circle class="st4" cx="115.9" cy="210.9" r="1.9"/>		<path class="st12" d="M128,216c0,8.3-21,15-46.9,15s-46.9-6.7-46.9-15c0-0.7,0.1-1.3,0.4-1.9h-0.1L52,172.5l0.4,0			c-0.2,0.2-0.2,0.4-0.3,0.5c-0.3,1.5,2.3,3.2,3.2,3.8c3.7,2.4,7.2,2.7,10.8,3.2c11.9,1.5,10.9,3,15.9,2.5c5.7-0.5,5.6-2.2,12.1-2.5			c4.3-0.2,6,0.5,9.6-0.6c3.3-1,7.3-3.3,7-5.1c0,0,0-0.1,0-0.1l0.2,0l0.6,1.4l16.1,38.5h-0.1C127.8,214.7,128,215.4,128,216z"/>	</g></g></svg>